<svg xmlns="http://www.w3.org/2000/svg" width="14" height="14" viewBox="0 0 14 14"><rect width="14" height="14" fill="#fff"/><g transform="translate(0,0) scale(0.6363636363636364)"><path d="M13 14H9V13H8V9H9V8H13V9H14V13H13M15 17H7V16H5V15H3V14H2V13H1V9H2V8H3V7H5V6H7V5H15V6H17V7H19V8H20V9H21V13H20V14H19V15H17V16H15M12 12V10H10V12M15 15V14H17V13H18V12H19V10H18V9H17V8H15V7H7V8H5V9H4V10H3V12H4V13H5V14H7V15Z" fill="#000"/><path d="M 2,1 L 21,20" stroke="#fff" stroke-width="6"/><path d="M 2,1 L 21,20" stroke="#000" stroke-width="3"/></g></svg>