<svg xmlns="http://www.w3.org/2000/svg" width="100" height="100" viewBox="0 0 100 100">
    
<defs>
  <pattern id="d12" width="4" height="4" patternUnits="userSpaceOnUse"><rect width="4" height="4" fill="#fff"/></pattern>
  <pattern id="d25" width="4" height="4" patternUnits="userSpaceOnUse"><rect width="4" height="4" fill="#fff"/></pattern>
  <pattern id="d50" width="2" height="2" patternUnits="userSpaceOnUse"><rect width="2" height="2" fill="#fff"/></pattern>
  <pattern id="d75" width="4" height="4" patternUnits="userSpaceOnUse"><rect width="4" height="4" fill="#fff"/></pattern>
</defs><rect width="100%" height="100%" fill="#fff"/>
  <g transform="translate(50,58) scale(0.9) translate(-50,-58)">
  <g stroke="#000" stroke-width="2.2" stroke-linecap="round" fill="none">
  <path d="M 15,60 L 2,55"/><path d="M 14,68 L 0,68"/><path d="M 15,76 L 2,80"/>
  <path d="M 85,60 L 98,55"/><path d="M 86,68 L 100,68"/><path d="M 85,76 L 98,80"/></g>
  <path d="M 21.3,15.9 L 24.7,36.1 Q 26.0,44.0 32.7,39.7 L 41.3,34.3 Q 48.0,30.0 41.7,25.1 L 26.3,12.9 Q 20.0,8.0 21.3,15.9 Z" fill="#fff" stroke="#000" stroke-width="3.2" stroke-linejoin="round"/>
  <path d="M 78.7,15.9 L 75.3,36.1 Q 74.0,44.0 67.3,39.7 L 58.7,34.3 Q 52.0,30.0 58.3,25.1 L 73.7,12.9 Q 80.0,8.0 78.7,15.9 Z" fill="#fff" stroke="#000" stroke-width="3.2" stroke-linejoin="round"/>
  <path d="M 24.9,19.9 L 27.1,33.1 Q 28.0,38.0 32.3,35.4 L 38.7,31.6 Q 43.0,29.0 39.0,26.0 L 28.0,18.0 Q 24.0,15.0 24.9,19.9 Z" fill="url(#d50)" stroke="#000" stroke-width="1.8" stroke-linejoin="round"/>
  <path d="M 75.1,19.9 L 72.9,33.1 Q 72.0,38.0 67.7,35.4 L 61.3,31.6 Q 57.0,29.0 61.0,26.0 L 72.0,18.0 Q 76.0,15.0 75.1,19.9 Z" fill="url(#d50)" stroke="#000" stroke-width="1.8" stroke-linejoin="round"/>
  <path d="M 40,32 L 60,32 Q 87,32 87,59
          L 87,65 Q 87,92 60,92
          L 40,92 Q 13,92 13,65
          L 13,59 Q 13,32 40,32 Z" fill="#fff" stroke="#000" stroke-width="3.2" stroke-linejoin="round"/>
  
  <path d="M 27.5,55.5 Q 35,66 42.5,55.5"
                        fill="none" stroke="#000" stroke-width="3.8000000000000003" stroke-linecap="round"/><path d="M 57.5,55.5 Q 65,66 72.5,55.5"
                        fill="none" stroke="#000" stroke-width="3.8000000000000003" stroke-linecap="round"/>
  <path d="M 46.6,71 Q 50,69.9 53.4,71 Q 50,74.6 46.6,71 Z"
  fill="#000" stroke="#000" stroke-width="1.4" stroke-linejoin="round"/>
  <path d="M 42.5,80.5 q 7.5,-7 15,0" fill="none" stroke="#000" stroke-width="2.9" stroke-linecap="round"/>
  
  </g>
  </svg>